<mxfile host="app.diagrams.net" modified="2024-01-18T09:09:29.402Z" agent="Mozilla/5.0 (Windows NT 10.0; Win64; x64) AppleWebKit/537.36 (KHTML, like Gecko) Chrome/120.0.0.0 Safari/537.36 Edg/120.0.0.0" version="22.1.21" etag="jS16goaoiRTOx869a-mU" type="github">
  <diagram name="Page-1" id="Vz1a01lVyR-qW_gTcOtJ">
    <mxGraphModel>
      <root>
        <mxCell id="0" />
        <mxCell id="1" parent="0" />
      </root>
    </mxGraphModel>
  </diagram>
</mxfile>
